<svg xmlns="http://www.w3.org/2000/svg" xmlns:xlink="http://www.w3.org/1999/xlink" x="0px" y="0px" width="545px" height="41px" viewBox="0 0 545 41">
  <g  transform="translate(0, 0)">
    <path fill="#585c64" d="M15,16H1c-0.6,0-1-0.4-1-1V1c0-0.6,0.4-1,1-1h14c0.6,0,1,0.4,1,1v14C16,15.6,15.6,16,15,16z M2,14h12V2H2V14
	z"/>
    <path data-color="color-2" fill="#585c64" d="M6,4c0.6,0,1,0.4,1,1S6.6,6,6,6S5,5.6,5,5S5.4,4,6,4z"/>
    <polygon data-color="color-2" fill="#585c64" points="3,12 5,8 7,10 10,6 13,12 "/>
  </g>
  <g  transform="translate(16, 0)">
    <path fill="#585c64" d="M8,2c1.1,0,2,0.9,2,2v1c0,1.1-0.9,2-2,2S6,6.1,6,5V4C6,2.9,6.9,2,8,2 M8,0C5.8,0,4,1.8,4,4v1
	c0,2.2,1.8,4,4,4s4-1.8,4-4V4C12,1.8,10.2,0,8,0L8,0z"/>
    <path data-color="color-2" fill="#585c64" d="M9,12c1.5,0,2.8,0.8,3.5,2l-8.9,0c0.7-1.2,2-2,3.5-2H9 M9,10H7c-3.3,0-6,2.7-6,6v0h14v0
	C15,12.7,12.3,10,9,10L9,10z"/>
  </g>
  <g  transform="translate(32, 0)">
    <path fill="#585c64" d="M12,0H1v16h11c1.7,0,3-1.3,3-3V3C15,1.3,13.7,0,12,0z M13,13c0,0.6-0.4,1-1,1H3V2h9c0.6,0,1,0.4,1,1V13z"/>
    <polygon data-color="color-2" fill="#585c64" points="5,9 7,7 9,9 9,3 5,3 "/>
  </g>
  <g  transform="translate(48, 0)">
    <path fill="#585c64" d="M8,0C3.6,0,0,3.1,0,7c0,3.9,3.6,7,8,7c0.2,0,0.4,0,0.6,0l5.4,2v-4.4c1.2-1.2,2-2.8,2-4.6C16,3.1,12.4,0,8,0z
	 M12,10.8v2.3L8.9,12c0,0-0.7,0-0.9,0c-3.3,0-6-2.2-6-5s2.7-5,6-5s6,2.2,6,5C14,9.2,12,10.8,12,10.8z"/>
  </g>
  <g  transform="translate(65, 0)">
    <path fill="#585c64" d="M8,0C3.6,0,0,3.6,0,8s3.6,8,8,8s8-3.6,8-8S12.4,0,8,0z M13.9,9H8.7L6.9,4.6L5.1,5.4L6.5,9H2.1
	C2,8.7,2,8.3,2,8c0-3.3,2.7-6,6-6s6,2.7,6,6C14,8.3,14,8.7,13.9,9z"/>
  </g>
  <g  transform="translate(82, 0)">
    <path data-color="color-2" fill="#585c64" d="M10,14H6c0,1.1,0.9,2,2,2S10,15.1,10,14z"/>
    <path fill="#585c64" d="M15,11h-0.5C13.8,10.3,13,9.3,13,8V5c0-2.8-2.2-5-5-5S3,2.2,3,5v3c0,1.3-0.8,2.3-1.5,3H1c-0.6,0-1,0.4-1,1
	s0.4,1,1,1h14c0.6,0,1-0.4,1-1S15.6,11,15,11z"/>
  </g>
	
<g  transform="translate(99, 0)">
    <path fill="#585c64" d="M6,0H1C0.4,0,0,0.4,0,1v5c0,0.6,0.4,1,1,1h5c0.6,0,1-0.4,1-1V1C7,0.4,6.6,0,6,0z"></path>
    <path fill="#585c64" d="M15,0h-5C9.4,0,9,0.4,9,1v5c0,0.6,0.4,1,1,1h5c0.6,0,1-0.4,1-1V1C16,0.4,15.6,0,15,0z"></path>
    <path fill="#585c64" d="M6,9H1c-0.6,0-1,0.4-1,1v5c0,0.6,0.4,1,1,1h5c0.6,0,1-0.4,1-1v-5C7,9.4,6.6,9,6,9z"></path>
    <path fill="#585c64" d="M15,9h-5c-0.6,0-1,0.4-1,1v5c0,0.6,0.4,1,1,1h5c0.6,0,1-0.4,1-1v-5C16,9.4,15.6,9,15,9z"></path>
</g>
<g  transform="translate(116, 0)">
    <path fill="#585c64" d="M15,3h-5C9.4,3,9,3.4,9,4s0.4,1,1,1h5c0.6,0,1-0.4,1-1S15.6,3,15,3z"></path>
    <path fill="#585c64" d="M1,5h1v2c0,0.6,0.4,1,1,1h3c0.6,0,1-0.4,1-1V1c0-0.6-0.4-1-1-1H3C2.4,0,2,0.4,2,1v2H1C0.4,3,0,3.4,0,4 S0.4,5,1,5z"></path>
    <path data-color="color-2" fill="#585c64" d="M1,13h5c0.6,0,1-0.4,1-1s-0.4-1-1-1H1c-0.6,0-1,0.4-1,1S0.4,13,1,13z"></path>
    <path data-color="color-2" fill="#585c64" d="M15,11h-1V9c0-0.6-0.4-1-1-1h-3C9.4,8,9,8.4,9,9v6c0,0.6,0.4,1,1,1h3c0.6,0,1-0.4,1-1v-2h1 c0.6,0,1-0.4,1-1S15.6,11,15,11z"></path>
</g>
<g  transform="translate(133, 0)">
    <path data-color="color-2" fill="#585c64" d="M10,0H1.5C0.7,0,0,0.7,0,1.5v0C0,2.3,0.7,3,1.5,3H10V0z"></path>
    <path fill="#585c64" d="M15,5H0v9c0,1.1,0.9,2,2,2h13c0.6,0,1-0.4,1-1V6C16,5.4,15.6,5,15,5z M12.5,12c-0.8,0-1.5-0.7-1.5-1.5 S11.7,9,12.5,9S14,9.7,14,10.5S13.3,12,12.5,12z"></path>
</g>
<g  transform="translate(150, 0)">
    <path fill="#585c64" d="M12,14H6c-3.3,0-6-2.7-6-6s2.7-6,6-6c2.6,0,4.8,1.6,5.6,4C14,5.8,16,7.7,16,10C16,12.2,14.2,14,12,14z M6,4 C3.8,4,2,5.8,2,8c0,2.2,1.8,4,4,4h6c1.1,0,2-0.9,2-2c0-1-0.6-2.7-3.9-1.4C10,7.6,9.7,4,6,4z"></path>
</g>
<g  transform="translate(167, 0)">
    <path fill="#585c64" d="M16,10V5c0-0.6-0.4-1-1-1h-3V1c0-0.6-0.4-1-1-1H5C4.4,0,4,0.4,4,1v3H1C0.4,4,0,4.4,0,5v5c0,0.6,0.4,1,1,1h14 C15.6,11,16,10.6,16,10z M6,2h4v2H6V2z"></path>
    <path data-color="color-2" fill="#585c64" d="M1,13v2c0,0.6,0.4,1,1,1h12c0.6,0,1-0.4,1-1v-2H1z"></path>
</g>
<g  transform="translate(167, 0)">
	<path fill="#585c64" d="M14,5h-2V4c0-2.2-1.8-4-4-4S4,1.8,4,4v1H2C1.4,5,1,5.4,1,6v9c0,0.6,0.4,1,1,1h12c0.6,0,1-0.4,1-1V6 C15,5.4,14.6,5,14,5z M6,4c0-1.1,0.9-2,2-2s2,0.9,2,2v1H6V4z"></path>
</g>
<g  transform="translate(185, 0)">
	<path fill="#585c64" d="M15,0h-4c-0.6,0-1,0.4-1,1v1H3.7C3.4,1.4,2.7,1,2,1C0.9,1,0,1.9,0,3s0.9,2,2,2c0.7,0,1.4-0.4,1.7-1h3 c-2,1.4-3.6,3.5-4.3,6H1c-0.6,0-1,0.4-1,1v4c0,0.6,0.4,1,1,1h4c0.6,0,1-0.4,1-1v-4c0-0.6-0.4-1-1-1H4.5C5.4,7.4,7.4,5.4,10,4.5V5 c0,0.6,0.4,1,1,1h4c0.6,0,1-0.4,1-1V1C16,0.4,15.6,0,15,0z M4,14H2v-2h2V14z M14,4h-2V2h2V4z"></path>
</g> 
<g  transform="translate(202, 0)">
	  <path data-color="color-2" fill="#585c64" d="M15,4h-1v6c0,0.552-0.448,1-1,1H6.828L5,13h5l3,3v-3h2c0.552,0,1-0.448,1-1V5 C16,4.448,15.552,4,15,4z"></path>
    <path fill="#585c64" d="M1,0h10c0.552,0,1,0.448,1,1v7c0,0.552-0.448,1-1,1H6l-3,3V9H1C0.448,9,0,8.552,0,8V1C0,0.448,0.448,0,1,0z"></path>
</g>
<g  transform="translate(219, 0)">
	<path fill="#585c64" d="M15,1H1C0.448,1,0,1.447,0,2v12c0,0.553,0.448,1,1,1h14c0.552,0,1-0.447,1-1V2C16,1.447,15.552,1,15,1z M14,13H2V6.723l5.504,3.145c0.308,0.176,0.685,0.176,0.992,0L14,6.723V13z M14,4.42L8,7.849L2,4.42V3h12V4.42z"></path>
</g>
<g  transform="translate(236, 0)">
	<path fill="#585c64" d="M15.8,4.4l-2-3C13.6,1.2,13.3,1,13,1H3C2.7,1,2.4,1.2,2.2,1.4l-2,3c-0.2,0.4-0.2,0.8,0,1.2l7,9 c0.4,0.5,1.2,0.5,1.6,0l7-9C16.1,5.3,16.1,4.8,15.8,4.4z M8,12.4L2.2,5l1.3-2h8.9l1.3,2L8,12.4z"></path>
</g>
<g  transform="translate(254, 0)">
	<polygon data-color="color-2" fill="#585c64" points="8,13.4 2.1,9.7 0,11 8,16 16,11 13.9,9.7 "></polygon>
    <polygon fill="#585c64" points="0,6 8,1 16,6 8,11 "></polygon>
</g>
<g  transform="translate(271, 0)">
	<path fill="#585c64" d="M12.9,4.5l1.5-1.5l-1.4-1.4l-1.5,1.5c-0.7-0.5-1.6-0.9-2.5-1V0H7v2.1c-0.9,0.2-1.8,0.5-2.5,1L3.1,1.6 L1.6,3.1l1.5,1.5C2.6,5.2,2.2,6.1,2.1,7H0v2h2.1c0.2,0.9,0.5,1.8,1,2.5l-1.5,1.5l1.4,1.4l1.5-1.5c0.7,0.5,1.6,0.9,2.5,1V16h2v-2.1 c0.9-0.2,1.8-0.5,2.5-1l1.5,1.5l1.4-1.4l-1.5-1.5c0.5-0.7,0.9-1.6,1-2.5H16V7h-2.1C13.8,6.1,13.4,5.2,12.9,4.5z M8,11 c-1.7,0-3-1.3-3-3s1.3-3,3-3s3,1.3,3,3S9.7,11,8,11z"></path>
</g>
<g  transform="translate(288, 0)">
	<path fill="#585c64" d="M12.7,11.3c0.9-1.2,1.4-2.6,1.4-4.2C14.1,3.2,11,0,7.1,0S0,3.2,0,7.1c0,3.9,3.2,7.1,7.1,7.1 c1.6,0,3.1-0.5,4.2-1.4l3,3c0.2,0.2,0.5,0.3,0.7,0.3s0.5-0.1,0.7-0.3c0.4-0.4,0.4-1,0-1.4L12.7,11.3z M7.1,12.1 C4.3,12.1,2,9.9,2,7.1S4.3,2,7.1,2s5.1,2.3,5.1,5.1S9.9,12.1,7.1,12.1z"></path>
</g>
<g  transform="translate(305, 0)">
	<rect data-color="color-2" x="5" y="7" fill="#585c64" width="2" height="6"></rect>
    <rect data-color="color-2" x="9" y="7" fill="#585c64" width="2" height="6"></rect>
    <path fill="#585c64" d="M12,1c0-0.6-0.4-1-1-1H5C4.4,0,4,0.4,4,1v2H0v2h1v10c0,0.6,0.4,1,1,1h12c0.6,0,1-0.4,1-1V5h1V3h-4V1z M6,2h4 v1H6V2z M13,5v9H3V5H13z"></path>
</g>
<g  transform="translate(322, 0)">
	<path fill="#585c64" d="M15,2h-2V1c0-0.6-0.4-1-1-1h-1c-0.6,0-1,0.4-1,1v1H6V1c0-0.6-0.4-1-1-1H4C3.4,0,3,0.4,3,1v1H1 C0.4,2,0,2.4,0,3v12c0,0.6,0.4,1,1,1h14c0.6,0,1-0.4,1-1V3C16,2.4,15.6,2,15,2z M14,14H2V7h12V14z"></path>
</g>
<g  transform="translate(339, 0)">
	 <path fill="#585c64" d="M15,3H4.5L4,0.8C3.9,0.3,3.5,0,3,0H0v2h2.2L4,10.2C4.1,10.7,4.5,11,5,11h8c0.4,0,0.8-0.3,0.9-0.7l2-6 C16.1,3.8,15.8,3,15,3z"></path>
    <circle data-color="color-2" fill="#585c64" cx="5" cy="14" r="2"></circle>
    <circle data-color="color-2" fill="#585c64" cx="13" cy="14" r="2"></circle>
</g>
<g  transform="translate(357, 0)">
	<path fill="#585c64" d="M15,6H8.4l1.6-4.7c0.3-1-0.9-1.8-1.7-1l-8,8C-0.3,8.9,0.1,10,1,10h6.6l-1.6,4.7c-0.3,1,0.9,1.8,1.7,1l8-8 C16.3,7.1,15.9,6,15,6z"></path>
</g>
<g  transform="translate(375, 0)">
	 <path data-color="color-2" fill="#585c64" d="M4.5,16c-1.2,0-2.3-0.5-3.2-1.3c-1.8-1.8-1.8-4.6,0-6.4L2,7.6L3.4,9L2.7,9.7 c-1,1-1,2.6,0,3.6c1,1,2.6,1,3.6,0l3-3c1-1,1-2.6,0-3.6L8.6,6L10,4.6l0.7,0.7c1.8,1.8,1.8,4.6,0,6.4l-3,3C6.9,15.5,5.7,16,4.5,16z"></path>
    <path fill="#585c64" d="M6,11.4l-0.7-0.7c-1.8-1.8-1.8-4.6,0-6.4l3-3c0.9-0.9,2-1.3,3.2-1.3s2.3,0.5,3.2,1.3c1.8,1.8,1.8,4.6,0,6.4 L14,8.4L12.6,7l0.7-0.7c1-1,1-2.6,0-3.6c-1-1-2.6-1-3.6,0l-3,3c-1,1-1,2.6,0,3.6L7.4,10L6,11.4z"></path>
</g>
<g  transform="translate(393, 0)">
	<path fill="#585c64" d="M15,3h-2.5l-1.7-2.6C10.6,0.2,10.3,0,10,0H6C5.7,0,5.4,0.2,5.2,0.4L3.5,3H1C0.4,3,0,3.4,0,4v11 c0,0.6,0.4,1,1,1h14c0.6,0,1-0.4,1-1V4C16,3.4,15.6,3,15,3z M14,14H2V5h2c0.3,0,0.6-0.2,0.8-0.4L6.5,2h2.9l1.7,2.6 C11.4,4.8,11.7,5,12,5h2V14z"></path>
    <circle data-color="color-2" fill="#585c64" cx="8" cy="9" r="3"></circle>
</g>
<g  transform="translate(410, 0)">
	<path fill="#585c64" d="M12,9l3-3l-2.3-2.3l2-2l-1.4-1.4l-8,8C3.9,7.7,2.3,8,1.2,9.2c-1.6,1.6-1.6,4.1,0,5.7c1.6,1.6,4.1,1.6,5.7,0 C8.3,13.3,8.4,11,7,9.4l2.7-2.7L12,9z"></path>
</g>
<g  transform="translate(427, 0)">
	<path data-color="color-2" fill="#585c64" d="M5.7,7.3c-0.4-0.4-1-0.4-1.4,0s-0.4,1,0,1.4l2,2C6.5,10.9,6.7,11,7,11s0.5-0.1,0.7-0.3l7-7 c0.4-0.4,0.4-1,0-1.4s-1-0.4-1.4,0L7,8.6L5.7,7.3z"></path>
    <path fill="#585c64" d="M7,16c3.9,0,7-3.1,7-7c0-0.6-0.4-1-1-1s-1,0.4-1,1c0,2.8-2.2,5-5,5s-5-2.2-5-5s2.2-5,5-5 c0.6,0,1.1,0.1,1.7,0.3c0.5,0.2,1.1-0.1,1.3-0.6c0.2-0.5-0.1-1.1-0.6-1.3C8.6,2.1,7.8,2,7,2C3.1,2,0,5.1,0,9S3.1,16,7,16z"></path>
</g>
<g  transform="translate(444, 0)">
	<path fill="#585c64" d="M6,7H1C0.4,7,0,6.6,0,6V1c0-0.6,0.4-1,1-1h5c0.6,0,1,0.4,1,1v5C7,6.6,6.6,7,6,7z M2,5h3V2H2V5z"></path>
    <path data-color="color-2" fill="#585c64" d="M6,16H1c-0.6,0-1-0.4-1-1v-5c0-0.6,0.4-1,1-1h5c0.6,0,1,0.4,1,1v5C7,15.6,6.6,16,6,16z M2,14 h3v-3H2V14z"></path>
    <path data-color="color-2" fill="#585c64" d="M15,7h-5C9.4,7,9,6.6,9,6V1c0-0.6,0.4-1,1-1h5c0.6,0,1,0.4,1,1v5C16,6.6,15.6,7,15,7z M11,5 h3V2h-3V5z"></path>
    <rect x="3" y="3" fill="#585c64" width="1" height="1"></rect>
    <rect data-color="color-2" x="3" y="12" fill="#585c64" width="1" height="1"></rect>
    <rect x="9" y="14" fill="#585c64" width="7" height="2"></rect>
    <path fill="#585c64" d="M16,13h-2v-2h-3V9h4c0.6,0,1,0.4,1,1V13z"></path>
    <rect x="12" y="12" fill="#585c64" width="1" height="1"></rect>
    <rect data-color="color-2" x="12" y="3" fill="#585c64" width="1" height="1"></rect>
</g>
<g  transform="translate(461, 0)">
	<path fill="#585c64" d="M15.144,5.438l-4.316-0.627L8.897,0.9c-0.338-0.683-1.456-0.683-1.794,0l-1.93,3.911L0.856,5.438 C0.039,5.557-0.292,6.565,0.302,7.145l3.124,3.044l-0.737,4.299c-0.139,0.814,0.717,1.439,1.451,1.054L8,13.513l3.861,2.03 c0.728,0.381,1.591-0.234,1.451-1.054l-0.737-4.299l3.124-3.044C16.292,6.565,15.961,5.557,15.144,5.438z"></path>
</g>
<g  transform="translate(478, 0)">
	<path data-color="color-2" fill="#585c64" d="M3,2h10c0.6,0,1-0.4,1-1s-0.4-1-1-1H3C2.4,0,2,0.4,2,1S2.4,2,3,2z"></path>
    <path fill="#585c64" d="M15,4H1C0.4,4,0,4.4,0,5v10c0,0.6,0.4,1,1,1h14c0.6,0,1-0.4,1-1V5C16,4.4,15.6,4,15,4z M12,11H4V7h2v2h4V7h2 V11z"></path>
</g>
<g  transform="translate(495, 0)">
	<circle fill="#585c64" cx="8" cy="5" r="5"></circle>
    <path data-color="color-2" fill="#585c64" d="M13.8,8.9c-1.1,1.7-3,2.9-5.2,3.1l1.9,4l1.9-3.1l3.6,0.5L13.8,8.9z"></path>
    <path data-color="color-2" fill="#585c64" d="M2.2,8.9L0,13.4l3.6-0.5L5.4,16l1.9-4C5.2,11.8,3.3,10.6,2.2,8.9z"></path>
</g>
<g  transform="translate(512, 0)">
	<path fill="#585c64" d="M15.285,12.305l-2.578-2.594c-0.39-0.393-1.025-0.393-1.416-0.002L9,12L4,7l2.294-2.294 c0.39-0.39,0.391-1.023,0.001-1.414l-2.58-2.584C3.324,0.317,2.691,0.317,2.3,0.708L0.004,3.003L0,3c0,7.18,5.82,13,13,13 l2.283-2.283C15.673,13.327,15.674,12.696,15.285,12.305z"></path>
</g>
<g  transform="translate(529, 0)">
	<path fill="#585c64" d="M11.7,0.3c-0.4-0.4-1-0.4-1.4,0l-10,10C0.1,10.5,0,10.7,0,11v4c0,0.6,0.4,1,1,1h4c0.3,0,0.5-0.1,0.7-0.3 l10-10c0.4-0.4,0.4-1,0-1.4L11.7,0.3z M4.6,14H2v-2.6l6-6L10.6,8L4.6,14z M12,6.6L9.4,4L11,2.4L13.6,5L12,6.6z"></path>
</g>
<g  transform="translate(0, 17)">
 	<path fill="#C0C0C0" d="M19 6.41L17.59 5 12 10.59 6.41 5 5 6.41 10.59 12 5 17.59 6.41 19 12 13.41 17.59 19 19 17.59 13.41 12z"></path>
</g>
<g  transform="translate(25, 17)">
	<path fill="#C0C0C0" d="M3 18h18v-2H3v2zm0-5h18v-2H3v2zm0-7v2h18V6H3z"></path>
</g>		
</svg>